<svg width="50" height="50" viewBox="0 0 50 50" fill="none" xmlns="http://www.w3.org/2000/svg">
<path fill-rule="evenodd" clip-rule="evenodd" d="M25 50C38.8071 50 50 38.8071 50 25C50 11.1929 38.8071 0 25 0C11.1929 0 0 11.1929 0 25C0 38.8071 11.1929 50 25 50ZM22 28V36C22 36.6667 22.4 38 24 38H26C26.6667 38 28 37.6 28 36V28H36C36.6667 28 38 27.6 38 26V24C38 23.3333 37.6 22 36 22H28V14C28 13.3333 27.6 12 26 12H24C23.3333 12 22 12.4 22 14V22H14C13.3333 22 12 22.4 12 24V26C12 26.6667 12.4 28 14 28H22Z" fill="#F2F2F2"/>
</svg>
