<svg width="50" height="50" viewBox="0 0 50 50" fill="none" xmlns="http://www.w3.org/2000/svg">
<path d="M43.8987 27.4375C43.9925 26.6562 44.055 25.8438 44.055 25C44.055 24.1562 43.9925 23.3438 43.8675 22.5625L49.1487 18.4375C49.6175 18.0625 49.7425 17.375 49.4612 16.8437L44.4612 8.1875C44.1487 7.625 43.4925 7.4375 42.93 7.625L36.7112 10.125C35.3987 9.125 34.0237 8.3125 32.4925 7.6875L31.555 1.0625C31.4612 0.4375 30.93 0 30.305 0H20.305C19.68 0 19.18 0.4375 19.0862 1.0625L18.1487 7.6875C16.6175 8.3125 15.2112 9.15625 13.93 10.125L7.71123 7.625C7.14873 7.40625 6.49249 7.625 6.17999 8.1875L1.17999 16.8437C0.867485 17.4062 0.992486 18.0625 1.49249 18.4375L6.77374 22.5625C6.64874 23.3438 6.55499 24.1875 6.55499 25C6.55499 25.8125 6.61749 26.6562 6.74249 27.4375L1.46124 31.5625C0.992485 31.9375 0.867485 32.625 1.14874 33.1562L6.14874 41.8125C6.46124 42.375 7.11749 42.5625 7.67999 42.375L13.8987 39.875C15.2112 40.875 16.5862 41.6875 18.1175 42.3125L19.055 48.9375C19.18 49.5625 19.68 50 20.305 50H30.305C30.93 50 31.4612 49.5625 31.5237 48.9375L32.4612 42.3125C33.9925 41.6875 35.3987 40.8438 36.68 39.875L42.8987 42.375C43.4612 42.5938 44.1175 42.375 44.43 41.8125L49.43 33.1562C49.7425 32.5937 49.6175 31.9375 49.1175 31.5625L43.8987 27.4375V27.4375ZM25.305 34.375C20.1487 34.375 15.93 30.1562 15.93 25C15.93 19.8438 20.1487 15.625 25.305 15.625C30.4612 15.625 34.68 19.8438 34.68 25C34.68 30.1562 30.4612 34.375 25.305 34.375Z" fill="#F2F2F2"/>
</svg>
