<svg width="52" height="52" viewBox="0 0 52 52" fill="none" xmlns="http://www.w3.org/2000/svg">
<path fill-rule="evenodd" clip-rule="evenodd" d="M26 14.625C19.7285 14.625 14.625 19.7285 14.625 26C14.625 32.2715 19.7285 37.375 26 37.375C32.2715 37.375 37.375 32.2715 37.375 26C37.375 19.7285 32.2715 14.625 26 14.625ZM26 34.125C21.5122 34.125 17.875 30.4878 17.875 26C17.875 21.5122 21.5122 17.875 26 17.875C30.4878 17.875 34.125 21.5122 34.125 26C34.125 30.4878 30.4878 34.125 26 34.125ZM26 11.375C26.8971 11.375 27.625 10.6471 27.625 9.75V6.5C27.625 5.6029 26.8971 4.875 26 4.875C25.1029 4.875 24.375 5.6029 24.375 6.5V9.75C24.375 10.6471 25.1029 11.375 26 11.375ZM26 40.625C25.1029 40.625 24.375 41.3529 24.375 42.25V45.5C24.375 46.3971 25.1029 47.125 26 47.125C26.8971 47.125 27.625 46.3971 27.625 45.5V42.25C27.625 41.3529 26.8971 40.625 26 40.625ZM38.6382 15.6576L40.9361 13.3597C41.5709 12.725 41.5709 11.6966 40.9361 11.0619C40.3013 10.4271 39.273 10.4271 38.6382 11.0619L36.3404 13.3597C35.7056 13.9945 35.7056 15.0228 36.3404 15.6576C36.975 16.2924 38.0035 16.2924 38.6382 15.6576ZM13.3618 36.3425L11.0639 38.6404C10.4291 39.275 10.4291 40.3034 11.0639 40.9381C11.6987 41.5729 12.727 41.5729 13.3618 40.9381L15.6596 38.6404C16.2944 38.0035 16.2944 36.9772 15.6596 36.3425C15.025 35.7076 13.9965 35.7055 13.3618 36.3425ZM11.375 26C11.375 25.1029 10.6471 24.375 9.75 24.375H6.5C5.6029 24.375 4.875 25.1029 4.875 26C4.875 26.8971 5.6029 27.625 6.5 27.625H9.75C10.6471 27.625 11.375 26.8971 11.375 26ZM45.5 24.375H42.25C41.3529 24.375 40.625 25.1029 40.625 26C40.625 26.8971 41.3529 27.625 42.25 27.625H45.5C46.3971 27.625 47.125 26.8971 47.125 26C47.125 25.1029 46.3971 24.375 45.5 24.375ZM13.3596 15.6576C13.9945 16.2924 15.0228 16.2924 15.6575 15.6576C16.2924 15.0228 16.2924 13.9945 15.6575 13.3597L13.3596 11.0619C12.7249 10.4271 11.6966 10.4271 11.0618 11.0619C10.427 11.6966 10.427 12.725 11.0618 13.3597L13.3596 15.6576ZM38.6404 36.3403C38.0035 35.7055 36.9772 35.7055 36.3425 36.3403C35.7076 36.975 35.7056 38.0034 36.3425 38.6381L38.6404 40.936C39.275 41.5708 40.3034 41.5708 40.9381 40.936C41.5729 40.3012 41.5729 39.273 40.9381 38.6381L38.6404 36.3403Z" fill="white"/>
</svg>
