<svg width="52" height="52" viewBox="0 0 52 52" fill="none" xmlns="http://www.w3.org/2000/svg">
<path d="M35.5318 34.8512C30.4663 39.9208 22.2187 39.9208 17.149 34.8512C12.0794 29.7815 12.0794 21.5338 17.149 16.4662C18.4905 15.1269 20.126 14.1049 22.0069 13.4385C22.5994 13.2311 23.2554 13.3814 23.6954 13.8236C24.1398 14.2679 24.2901 14.9238 24.0806 15.5121C22.8068 19.1048 23.6744 22.9938 26.3403 25.6599C29.0021 28.3237 32.8912 29.1892 36.4881 27.9197C37.0764 27.7102 37.7344 27.8604 38.1766 28.3048C38.621 28.7448 38.7691 29.4029 38.5596 29.9933C37.8973 31.8742 36.8732 33.5097 35.5318 34.8512ZM19.4468 18.7641C15.6446 22.5664 15.6446 28.7532 19.4468 32.5533C23.5093 36.618 30.4283 36.2519 33.9703 31.7239C30.3182 31.9524 26.7213 30.6342 24.0425 27.9575C21.3638 25.281 20.0478 21.6839 20.2762 18.0319C19.9843 18.2605 19.707 18.5039 19.4468 18.7641Z" fill="white"/>
</svg>
