<svg width="52" height="52" viewBox="0 0 52 52" fill="none" xmlns="http://www.w3.org/2000/svg">
<path d="M21.125 6.5C22.0221 6.5 22.75 5.7721 22.75 4.875V1.625C22.75 0.727898 22.0221 0 21.125 0C20.2279 0 19.5 0.727898 19.5 1.625V4.875C19.5 5.7721 20.2279 6.5 21.125 6.5ZM33.7632 10.7826L36.0611 8.48473C36.6957 7.84997 36.6957 6.82165 36.0611 6.18688C35.4263 5.55212 34.398 5.55212 33.7632 6.18688L31.4654 8.48473C30.8306 9.1195 30.8306 10.1478 31.4654 10.7826C32.1 11.4174 33.1285 11.4174 33.7632 10.7826ZM1.625 22.75H4.875C5.7721 22.75 6.5 22.0221 6.5 21.125C6.5 20.2279 5.7721 19.5 4.875 19.5H1.625C0.727898 19.5 0 20.2279 0 21.125C0 22.0221 0.727898 22.75 1.625 22.75ZM35.75 21.125C35.75 22.0221 36.4779 22.75 37.375 22.75H40.625C41.5221 22.75 42.25 22.0221 42.25 21.125C42.25 20.2279 41.5221 19.5 40.625 19.5H37.375C36.4779 19.5 35.75 20.2279 35.75 21.125ZM8.48463 10.7826C9.1195 11.4174 10.1478 11.4174 10.7825 10.7826C11.4174 10.1478 11.4174 9.1195 10.7825 8.48473L8.48463 6.18688C7.84987 5.55212 6.82165 5.55212 6.18678 6.18688C5.55202 6.82165 5.55202 7.84997 6.18678 8.48473L8.48463 10.7826ZM40.625 26C40.0855 26 39.5523 26.0381 39.0211 26.1143C37.3178 23.791 35.0476 22.0179 32.4746 20.8838C32.3435 14.7266 27.314 9.75 21.125 9.75C14.8535 9.75 9.75 14.8535 9.75 21.125C9.75 22.896 10.1902 24.5527 10.918 26.0445C4.8623 26.292 0 31.2622 0 37.375C0 43.6465 5.10352 48.75 11.375 48.75C12.7652 48.75 14.1257 48.4961 15.4079 48.0052C18.3489 50.5697 22.0898 52 26 52C29.9144 52 33.651 50.5697 36.5921 48.0052C37.8743 48.4961 39.2348 48.75 40.625 48.75C46.8965 48.75 52 43.6465 52 37.375C52 31.1035 46.8965 26 40.625 26ZM21.125 13C25.1684 13 28.4946 15.9623 29.1188 19.8301C28.101 19.627 27.0622 19.5 26 19.5C21.3344 19.5 17.0117 21.5122 13.9775 24.9082C13.3746 23.7741 13 22.5004 13 21.125C13 16.6372 16.6372 13 21.125 13ZM40.625 45.5C38.8857 45.5 37.282 44.9414 35.9594 44.0104C33.5749 46.8838 30.0243 48.75 26 48.75C21.9756 48.75 18.4251 46.8838 16.0406 44.0104C14.7203 44.9414 13.1143 45.5 11.375 45.5C6.88716 45.5 3.25 41.8628 3.25 37.375C3.25 32.8872 6.88716 29.25 11.375 29.25C12.1621 29.25 12.9047 29.3981 13.6221 29.6096C13.9077 29.6901 14.1976 29.7535 14.4663 29.8657C14.9106 28.9961 15.4692 28.2005 16.0891 27.4536C18.4632 24.5972 21.9946 22.75 26 22.75C27.0283 22.75 28.0144 22.8981 28.9707 23.1267C30.0434 23.3805 31.057 23.7656 32.0007 24.2734C34.3662 25.5303 36.3086 27.4769 37.5315 29.8658C38.4859 29.4722 39.529 29.25 40.625 29.25C45.1128 29.25 48.75 32.8872 48.75 37.375C48.75 41.8628 45.1128 45.5 40.625 45.5Z" fill="white"/>
</svg>
