<svg width="52" height="52" viewBox="0 0 52 52" fill="none" xmlns="http://www.w3.org/2000/svg">
<g clip-path="url(#clip0)">
<path d="M44.186 26.6262C44.6811 26.2581 45.1825 25.8962 45.6311 25.4477C46.9725 24.1041 47.9946 22.4686 48.6568 20.5875C48.8684 19.9993 48.7182 19.3391 48.2738 18.8991C47.8316 18.4547 47.1757 18.3045 46.5855 18.5139C42.9906 19.7835 39.1015 18.9202 36.4398 16.2542C33.7738 13.5881 32.9062 9.70126 34.18 6.10848C34.3874 5.5181 34.2392 4.86221 33.7949 4.41787C33.3548 3.9778 32.6968 3.82536 32.1064 4.03285C30.2233 4.70133 28.5898 5.72112 27.2483 7.06266C23.8418 10.465 22.7817 15.2892 23.9496 19.6353C19.5571 20.196 15.6088 22.5298 12.9788 26.1143C12.4477 26.0381 11.9145 26 11.3749 26C5.10339 26 -0.00012207 31.1035 -0.00012207 37.3751C-0.00012207 43.6465 5.10339 48.75 11.3749 48.75C12.7651 48.75 14.1256 48.4961 15.4078 48.0051C18.3488 50.5696 22.0897 52 25.9999 52C29.9143 52 33.6509 50.5696 36.5919 48.0051C37.8742 48.4961 39.2347 48.75 40.6249 48.75C46.8964 48.75 51.9999 43.6465 51.9999 37.3751C52 32.354 48.7076 28.1307 44.186 26.6262ZM29.5461 9.36061C29.8043 9.09828 30.0815 8.85493 30.3735 8.62642C30.145 12.2805 31.4631 15.8754 34.1418 18.552C36.8207 21.2307 40.4155 22.5468 44.0697 22.3204C42.6689 24.1063 40.7392 25.2171 38.6741 25.691C35.8938 22.1618 31.808 19.9401 27.3033 19.5783C26.0571 16.1293 26.7871 12.1198 29.5461 9.36061ZM40.625 45.5C38.8857 45.5 37.282 44.9414 35.9594 44.0104C33.5748 46.8838 30.0243 48.75 26 48.75C21.9756 48.75 18.425 46.8838 16.0406 44.0104C14.7202 44.9414 13.1143 45.5 11.375 45.5C6.88714 45.5 3.24998 41.8628 3.24998 37.3751C3.24998 32.8873 6.88714 29.2501 11.375 29.2501C12.4731 29.2501 13.5141 29.4723 14.4663 29.8658C16.5167 25.8688 20.5347 23.0717 25.2637 22.8028C25.5113 22.7881 25.7524 22.7499 26 22.7499C27.3118 22.7499 28.5707 22.9552 29.7578 23.3169C31.3616 23.8079 32.8238 24.6076 34.0933 25.638C35.3057 26.622 36.3214 27.8279 37.1211 29.1822C37.2565 29.4107 37.4089 29.6265 37.5315 29.8656C38.4858 29.472 39.529 29.2499 40.625 29.2499C45.1128 29.2499 48.75 32.8871 48.75 37.3749C48.75 41.8627 45.1128 45.5 40.625 45.5Z" fill="white"/>
</g>
<defs>
<clipPath id="clip0">
<rect width="52" height="52" fill="white"/>
</clipPath>
</defs>
</svg>
