<svg width="52" height="52" viewBox="0 0 52 52" fill="none" xmlns="http://www.w3.org/2000/svg">
<path fill-rule="evenodd" clip-rule="evenodd" d="M40.625 16.25C40.0855 16.25 39.5523 16.2881 39.0211 16.3643C35.987 12.2299 31.1988 9.75 26 9.75C20.8012 9.75 16.0152 12.2299 12.9789 16.3643C12.4477 16.2881 11.9145 16.25 11.375 16.25C5.10352 16.25 0 21.3535 0 27.625C0 33.8965 5.10352 39 11.375 39C12.7652 39 14.1257 38.7461 15.4079 38.2552C18.3489 40.8197 22.0898 42.25 26 42.25C29.9144 42.25 33.651 40.8197 36.5921 38.2552C37.8743 38.7461 39.2348 39 40.625 39C46.8965 39 52 33.8965 52 27.625C52 21.3535 46.8965 16.25 40.625 16.25ZM40.625 35.75C38.8857 35.75 37.282 35.1914 35.9594 34.2604C33.5749 37.1337 30.0243 39 26 39C21.9756 39 18.4251 37.1337 16.0406 34.2604C14.7203 35.1914 13.1143 35.75 11.375 35.75C6.88716 35.75 3.25 32.1128 3.25 27.625C3.25 23.1372 6.88716 19.5 11.375 19.5C12.4731 19.5 13.5141 19.7242 14.4664 20.1178C16.6224 15.9115 20.9514 13 26 13C31.0486 13 35.3777 15.9115 37.5315 20.1178C38.4859 19.7242 39.529 19.5 40.625 19.5C45.1128 19.5 48.75 23.1372 48.75 27.625C48.75 32.1128 45.1128 35.75 40.625 35.75Z" fill="white"/>
</svg>
