<svg width="52" height="53" viewBox="0 0 52 53" fill="none" xmlns="http://www.w3.org/2000/svg">
<g clip-path="url(#clip0)">
<path d="M52 25.2189C52 20.2254 47.9375 16.165 42.944 16.165C42.7006 16.165 42.4594 16.1756 42.2182 16.1945C39.8696 13.2641 36.3297 11.5249 32.4999 11.5249C28.6722 11.5249 25.1303 13.2641 22.7816 16.1946C22.5404 16.1756 22.297 16.1651 22.0516 16.1651C17.0625 16.165 13 20.2254 13 25.2189C13 25.7415 13.0699 26.2451 13.1523 26.7466C13.0973 26.8185 13.0317 26.8841 12.9789 26.9581C12.4478 26.882 11.9146 26.8439 11.375 26.8439C5.10352 26.8439 0 31.9473 0 38.2188C0 44.4904 5.10352 49.5938 11.375 49.5938C12.7652 49.5938 14.1257 49.3399 15.4079 48.849C18.3489 51.4135 22.0898 52.8438 26 52.8438C29.9144 52.8438 33.651 51.4135 36.5921 48.849C37.8743 49.3399 39.2348 49.5938 40.625 49.5938C46.8965 49.5938 52 44.4904 52 38.2188C52 35.6098 51.0817 33.2338 49.5964 31.3126C51.0774 29.6982 52 27.5718 52 25.2189ZM40.625 46.3438C38.8857 46.3438 37.282 45.7853 35.9594 44.8543C33.5748 47.7276 30.0243 49.5938 26 49.5938C21.9756 49.5938 18.4251 47.7276 16.0406 44.8543C14.7203 45.7853 13.1144 46.3438 11.375 46.3438C6.88716 46.3438 3.25 42.7066 3.25 38.2188C3.25 33.7309 6.88716 30.0939 11.375 30.0939C12.4731 30.0939 13.5141 30.3161 14.4664 30.7095C14.5234 30.6017 14.5933 30.5064 14.6504 30.4027C15.2217 29.3596 15.9262 28.4032 16.7493 27.5547C19.0938 25.1257 22.3522 23.5938 26 23.5938C31.0486 23.5938 35.3777 26.5052 37.5315 30.7094C38.1049 30.4746 38.7165 30.3222 39.3469 30.2207L40.625 30.0938C41.8777 30.0938 43.0498 30.4027 44.1098 30.9063C45.2587 31.4563 46.2448 32.2646 47.0192 33.2613C48.0856 34.6345 48.75 36.3441 48.75 38.2188C48.75 42.7066 45.1128 46.3438 40.625 46.3438ZM47.2836 29.0401C45.4069 27.6732 43.1196 26.8439 40.625 26.8439C40.0855 26.8439 39.5523 26.882 39.0211 26.9581C35.987 22.8237 31.1987 20.3439 26 20.3439C22.5342 20.3439 19.2652 21.4653 16.561 23.4247C17.3206 21.1036 19.4788 19.4151 22.0517 19.4151C22.8388 19.4151 23.5814 19.5737 24.2606 19.8551C25.8032 16.8527 28.8944 14.7749 32.4999 14.7749C36.1054 14.7749 39.1988 16.8526 40.735 19.8551C41.4184 19.5737 42.1653 19.4151 42.9439 19.4151C46.1516 19.4151 48.7499 22.0134 48.7499 25.219C48.75 26.6894 48.1851 28.016 47.2836 29.0401Z" fill="white"/>
</g>
<defs>
<clipPath id="clip0">
<rect width="52" height="52" fill="white" transform="translate(0 0.84375)"/>
</clipPath>
</defs>
</svg>
