<svg width="52" height="53" viewBox="0 0 52 53" fill="none" xmlns="http://www.w3.org/2000/svg">
<g clip-path="url(#clip0)">
<path fill-rule="evenodd" clip-rule="evenodd" d="M40.625 7.34375C40.0855 7.34375 39.5523 7.38184 39.0211 7.45801C35.987 3.3236 31.1988 0.84375 26 0.84375C20.8012 0.84375 16.0152 3.3236 12.9789 7.45801C12.4477 7.38184 11.9145 7.34375 11.375 7.34375C5.10352 7.34375 0 12.4473 0 18.7188C0 24.9902 5.10352 30.0938 11.375 30.0938C12.7652 30.0938 14.1257 29.8398 15.4079 29.349C18.3489 31.9134 22.0898 33.3438 26 33.3438C29.9144 33.3438 33.651 31.9134 36.5921 29.349C37.8743 29.8398 39.2348 30.0938 40.625 30.0938C46.8965 30.0938 52 24.9902 52 18.7188C52 12.4473 46.8965 7.34375 40.625 7.34375ZM40.625 26.8438C38.8857 26.8438 37.282 26.2852 35.9594 25.3541C33.5749 28.2275 30.0243 30.0938 26 30.0938C21.9756 30.0938 18.4251 28.2275 16.0406 25.3541C14.7203 26.2852 13.1143 26.8438 11.375 26.8438C6.88716 26.8438 3.25 23.2066 3.25 18.7188C3.25 14.2309 6.88716 10.5938 11.375 10.5938C12.4731 10.5938 13.5141 10.818 14.4664 11.2116C16.6224 7.00524 20.9514 4.09375 26 4.09375C31.0486 4.09375 35.3777 7.00524 37.5315 11.2116C38.4859 10.818 39.529 10.5938 40.625 10.5938C45.1128 10.5938 48.75 14.2309 48.75 18.7188C48.75 23.2066 45.1128 26.8438 40.625 26.8438ZM22.8516 49.5938C22.8516 51.3902 24.3051 52.8438 26.1016 52.8438C27.898 52.8438 29.3516 51.3902 29.3516 49.5938C29.3516 47.7973 26.1016 43.0938 26.1016 43.0938C26.1016 43.0938 22.8516 47.7973 22.8516 49.5938ZM35.75 46.3438C35.75 48.1402 37.2036 49.5938 39 49.5938C40.7964 49.5938 42.25 48.1402 42.25 46.3438C42.25 44.5473 39 39.8438 39 39.8438C39 39.8438 35.75 44.5473 35.75 46.3438ZM9.75 39.8438C9.75 41.6402 11.2036 43.0938 13 43.0938C14.7964 43.0938 16.25 41.6402 16.25 39.8438C16.25 38.0473 13 33.3438 13 33.3438C13 33.3438 9.75 38.0473 9.75 39.8438Z" fill="white"/>
</g>
<defs>
<clipPath id="clip0">
<rect width="52" height="52" fill="white" transform="translate(0 0.84375)"/>
</clipPath>
</defs>
</svg>
