<svg width="52" height="53" viewBox="0 0 52 53" fill="none" xmlns="http://www.w3.org/2000/svg">
<path fill-rule="evenodd" clip-rule="evenodd" d="M40.625 10.5938C40.0855 10.5938 39.5523 10.6318 39.0211 10.708C35.987 6.5736 31.1988 4.09375 26 4.09375C20.8012 4.09375 16.0152 6.5736 12.9789 10.708C12.4477 10.6318 11.9145 10.5938 11.375 10.5938C5.10352 10.5938 0 15.6973 0 21.9688C0 28.2402 5.10352 33.3438 11.375 33.3438C12.7652 33.3438 14.1257 33.0898 15.4079 32.599C18.3489 35.1634 22.0898 36.5938 26 36.5938C29.9144 36.5938 33.651 35.1634 36.5921 32.599C37.8743 33.0898 39.2348 33.3438 40.625 33.3438C46.8965 33.3438 52 28.2402 52 21.9688C52 15.6973 46.8965 10.5938 40.625 10.5938ZM40.625 30.0938C38.8857 30.0938 37.282 29.5352 35.9594 28.6041C33.5749 31.4775 30.0243 33.3438 26 33.3438C21.9756 33.3438 18.4251 31.4775 16.0406 28.6041C14.7203 29.5352 13.1143 30.0938 11.375 30.0938C6.88716 30.0938 3.25 26.4566 3.25 21.9688C3.25 17.4809 6.88716 13.8438 11.375 13.8438C12.4731 13.8438 13.5141 14.068 14.4664 14.4616C16.6224 10.2552 20.9514 7.34375 26 7.34375C31.0486 7.34375 35.3777 10.2552 37.5315 14.4616C38.4859 14.068 39.529 13.8438 40.625 13.8438C45.1128 13.8438 48.75 17.4809 48.75 21.9688C48.75 26.4566 45.1128 30.0938 40.625 30.0938ZM22.75 46.3438C22.75 48.1402 24.2036 49.5938 26 49.5938C27.7964 49.5938 29.25 48.1402 29.25 46.3438C29.25 44.5473 26 39.8438 26 39.8438C26 39.8438 22.75 44.5473 22.75 46.3438Z" fill="white"/>
</svg>
