<svg width="52" height="53" viewBox="0 0 52 53" fill="none" xmlns="http://www.w3.org/2000/svg">
<g clip-path="url(#clip0)">
<path d="M52 14.5377C52 9.54634 47.9375 5.48607 42.944 5.48607C42.7006 5.48607 42.4594 5.4945 42.2182 5.51349C39.8696 2.58514 36.3298 0.84375 32.5 0.84375C28.6723 0.84375 25.1304 2.58514 22.7817 5.51349C22.5405 5.4945 22.2971 5.48607 22.0517 5.48607C17.0625 5.48607 13 9.54644 13 14.5377C13 15.0604 13.0699 15.566 13.1523 16.0654C13.0973 16.1373 13.0317 16.2029 12.9789 16.277C12.4478 16.2008 11.9146 16.1627 11.375 16.1627C5.10352 16.1627 0 21.2662 0 27.5377C0 33.8093 5.10352 38.9127 11.375 38.9127C12.7652 38.9127 14.1257 38.6589 15.4079 38.168C17.272 39.793 19.481 40.9039 21.8274 41.5407L19.5 43.0938L22.75 46.3438L19.5 52.8438L29.25 46.3438L26 43.0938L26.4887 42.1205C30.2211 42.0062 33.7758 40.6246 36.5921 38.168C37.8743 38.6589 39.2348 38.9127 40.625 38.9127C46.8965 38.9127 52 33.8093 52 27.5377C52 24.931 51.0817 22.5527 49.5964 20.6315C51.0774 19.0192 52 16.8928 52 14.5377ZM40.625 35.6627C38.8857 35.6627 37.282 35.1041 35.9594 34.1752C34.0297 36.5006 31.3129 38.1087 28.2174 38.6567L25.8032 38.8915C21.8613 38.8281 18.3828 37 16.0406 34.1753C14.7203 35.1042 13.1144 35.6628 11.375 35.6628C6.88716 35.6628 3.25 32.0278 3.25 27.5378C3.25 23.0521 6.88716 19.4128 11.375 19.4128C12.4731 19.4128 13.5141 19.6372 14.4664 20.0306C14.5234 19.9206 14.5933 19.8275 14.6504 19.7217C15.2217 18.6785 15.9262 17.7242 16.7493 16.8737C19.0938 14.4467 22.3522 12.9127 26 12.9127C31.0486 12.9127 35.3777 15.8242 37.5315 20.0305C38.1049 19.7936 38.7165 19.6412 39.3469 19.5397L40.625 19.4127C41.8777 19.4127 43.0498 19.7217 44.1098 20.2252C45.2587 20.7754 46.2448 21.5836 47.0192 22.5823C48.0856 23.9555 48.75 25.6631 48.75 27.5377C48.75 32.0277 45.1128 35.6627 40.625 35.6627ZM47.2836 18.359C45.4069 16.9942 43.1196 16.1627 40.625 16.1627C40.0855 16.1627 39.5523 16.2008 39.0211 16.277C35.987 12.1447 31.1988 9.66273 26 9.66273C22.5342 9.66273 19.2652 10.7862 16.561 12.7456C17.3206 10.4245 19.4788 8.73607 22.0517 8.73607C22.8388 8.73607 23.5814 8.89471 24.2606 9.17614C25.8032 6.17152 28.8945 4.09375 32.5 4.09375C36.1055 4.09375 39.1989 6.17152 40.7351 9.17614C41.4185 8.89471 42.1654 8.73607 42.944 8.73607C46.1517 8.73607 48.75 11.3343 48.75 14.5377C48.75 16.0104 48.1851 17.3371 47.2836 18.359Z" fill="white"/>
</g>
<defs>
<clipPath id="clip0">
<rect width="52" height="52" fill="white" transform="translate(0 0.84375)"/>
</clipPath>
</defs>
</svg>
