<svg width="52" height="53" viewBox="0 0 52 53" fill="none" xmlns="http://www.w3.org/2000/svg">
<g clip-path="url(#clip0)">
<path fill-rule="evenodd" clip-rule="evenodd" d="M33.1136 45.9058L31.2855 44.852C31.3406 44.5347 31.3828 44.211 31.3828 43.8746C31.3828 43.5382 31.3406 43.2144 31.2812 42.897L33.1136 41.8412C33.9685 41.3418 34.2604 40.2437 33.7695 39.3931C33.2743 38.532 32.1784 38.2378 31.3193 38.733L29.4721 39.7994C28.9769 39.3783 28.4184 39.0482 27.7963 38.824V36.7017C27.7963 35.7093 26.9901 34.9053 25.9999 34.9053C25.0097 34.9053 24.2057 35.7093 24.2057 36.7017V38.8218C23.5835 39.044 23.0229 39.3783 22.5278 39.7994L20.6848 38.733C19.8237 38.2378 18.7255 38.5298 18.2304 39.391C17.7352 40.2458 18.0335 41.3461 18.8905 41.8413L20.7145 42.895C20.6552 43.2145 20.6171 43.5383 20.6171 43.8747C20.6171 44.2111 20.6552 44.5348 20.7145 44.8521L18.8906 45.9058C18.0315 46.4009 17.7354 47.5054 18.2305 48.3624C18.7256 49.2194 19.8238 49.5113 20.6807 49.0163L22.5258 47.9562C23.0208 48.3751 23.5816 48.7052 24.2058 48.9273V51.0538C24.2058 52.0439 25.0098 52.8438 26 52.8438C26.9902 52.8438 27.7964 52.0439 27.7964 51.0538V48.9273C28.4185 48.7051 28.9835 48.375 29.4744 47.9498L31.3194 49.0162C32.1785 49.5113 33.2744 49.2193 33.7696 48.3623C34.2646 47.5054 33.9727 46.4072 33.1136 45.9058ZM26 45.6709C25.0098 45.6709 24.2036 44.8647 24.2036 43.8745C24.2036 42.8842 25.0098 42.0823 26 42.0823C26.9902 42.0823 27.7943 42.8842 27.7943 43.8745C27.7943 44.8647 26.9902 45.6709 26 45.6709ZM48.1575 41.0879L46.9303 40.7621C46.9007 40.3728 46.8076 40.0025 46.6362 39.647L47.527 38.7562C47.9459 38.3373 47.9438 37.6602 47.527 37.2476C47.1123 36.8308 46.4395 36.8287 46.0205 37.2476L45.1277 38.1363C44.7764 37.9712 44.4019 37.8761 44.0146 37.8443L43.6887 36.6192C43.5365 36.0522 42.9524 35.7115 42.3812 35.8638C41.8121 36.0183 41.4799 36.6023 41.6279 37.1714L41.9538 38.3796C41.793 38.4897 41.6406 38.6124 41.4968 38.7521C41.3572 38.896 41.2386 39.0482 41.1285 39.2049L39.9204 38.879C39.3512 38.7268 38.763 39.0695 38.6106 39.6344C38.4584 40.2057 38.8011 40.7876 39.3639 40.942L40.5826 41.27C40.6166 41.653 40.7139 42.0274 40.8852 42.383L39.9902 43.278C39.5756 43.6948 39.5777 44.3676 39.9945 44.7823C40.4092 45.197 41.082 45.2013 41.4968 44.7866L42.3938 43.8895C42.7451 44.0629 43.1218 44.1603 43.5111 44.1898L43.8326 45.4107C43.9893 45.9799 44.569 46.3185 45.1404 46.1661C45.7074 46.0138 46.0501 45.4299 45.8978 44.8542L45.5719 43.646C45.7243 43.5382 45.8809 43.4175 46.0248 43.2779C46.1644 43.1361 46.2829 42.9795 46.3928 42.823L47.6032 43.1489C48.1723 43.3012 48.7584 42.9606 48.9086 42.3956C49.061 41.8284 48.7246 41.2445 48.1575 41.0879ZM44.5161 41.7671C44.0971 42.1861 43.4221 42.184 43.0053 41.7671C42.5928 41.3546 42.5885 40.6775 43.0053 40.2585C43.4221 39.8439 44.0993 39.8439 44.5161 40.2585C44.9287 40.6753 44.9287 41.3545 44.5161 41.7671ZM12.0796 35.6289L10.8736 35.9527C10.7615 35.8003 10.6451 35.6459 10.5033 35.502C10.3595 35.3623 10.2071 35.2417 10.0484 35.1338L10.3722 33.9213C10.5245 33.3522 10.1859 32.7661 9.62315 32.6159C9.05186 32.4635 8.46787 32.8021 8.31553 33.3691L7.98545 34.5942C7.5983 34.6259 7.228 34.7211 6.87456 34.8883L5.97959 33.9975C5.56065 33.5786 4.8878 33.5807 4.47302 33.9975C4.0562 34.4143 4.0562 35.0893 4.47302 35.5061L5.36382 36.3969C5.19665 36.7524 5.09935 37.127 5.0697 37.512L3.84668 37.8378C3.27539 37.9944 2.93678 38.5741 3.08923 39.1454C3.2437 39.7124 3.82769 40.0468 4.39898 39.8987L5.60503 39.5706C5.71289 39.7336 5.83355 39.886 5.97959 40.0278C6.11924 40.1674 6.27159 40.2923 6.43033 40.3959L6.10655 41.6041C5.9542 42.1754 6.29281 42.7637 6.85973 42.916C7.43113 43.0684 8.01084 42.7299 8.16319 42.1606L8.49327 40.9418C8.88042 40.9102 9.25498 40.8128 9.61045 40.6435L10.5033 41.5364C10.9181 41.9552 11.5909 41.9468 12.0099 41.5321C12.4224 41.1196 12.4288 40.4446 12.0099 40.0278L11.1149 39.1328C11.2863 38.7814 11.3879 38.4028 11.4133 38.0155L12.6383 37.6917C13.2032 37.5373 13.5418 36.9554 13.3895 36.3841C13.237 35.8194 12.6531 35.4808 12.0796 35.6289ZM8.99458 38.5192C8.57777 38.936 7.90278 38.936 7.48384 38.5192C7.07129 38.1045 7.07129 37.4252 7.48384 37.0127C7.90278 36.598 8.57777 36.598 8.99458 37.0127C9.41139 37.4274 9.40723 38.1045 8.99458 38.5192ZM52 18.7188C52 12.4473 46.8965 7.34375 40.625 7.34375C40.0855 7.34375 39.5523 7.38184 39.0211 7.45801C35.987 3.3236 31.1988 0.84375 26 0.84375C20.8012 0.84375 16.0152 3.3236 12.9789 7.45801C12.4477 7.38184 11.9145 7.34375 11.375 7.34375C5.10352 7.34375 0 12.4473 0 18.7188C0 24.9902 5.10352 30.0938 11.375 30.0938C12.7652 30.0938 14.1257 29.8398 15.4079 29.349C18.3489 31.9134 22.0898 33.3438 26 33.3438C29.9144 33.3438 33.651 31.9134 36.5921 29.349C37.8743 29.8398 39.2348 30.0938 40.625 30.0938C46.8965 30.0938 52 24.9902 52 18.7188ZM35.9594 25.3541C33.5749 28.2275 30.0243 30.0938 26 30.0938C21.9756 30.0938 18.4251 28.2275 16.0406 25.3541C14.7203 26.2852 13.1143 26.8438 11.375 26.8438C6.88716 26.8438 3.25 23.2066 3.25 18.7188C3.25 14.2309 6.88716 10.5938 11.375 10.5938C12.4731 10.5938 13.5141 10.818 14.4664 11.2116C16.6224 7.00524 20.9514 4.09375 26 4.09375C31.0486 4.09375 35.3777 7.00524 37.5315 11.2116C38.4859 10.818 39.529 10.5938 40.625 10.5938C45.1128 10.5938 48.75 14.2309 48.75 18.7188C48.75 23.2066 45.1128 26.8438 40.625 26.8438C38.8857 26.8438 37.282 26.2852 35.9594 25.3541Z" fill="white"/>
</g>
<defs>
<clipPath id="clip0">
<rect width="52" height="52" fill="white" transform="translate(0 0.84375)"/>
</clipPath>
</defs>
</svg>
