<svg width="52" height="53" viewBox="0 0 52 53" fill="none" xmlns="http://www.w3.org/2000/svg">
<path d="M26 10.4922C26.8971 10.4922 27.625 9.76429 27.625 8.86719V5.61719C27.625 4.72009 26.8971 3.99219 26 3.99219C25.1029 3.99219 24.375 4.72009 24.375 5.61719V8.86719C24.375 9.76429 25.1029 10.4922 26 10.4922ZM38.6382 14.7748L40.9361 12.4769C41.5707 11.8422 41.5707 10.8138 40.9361 10.1791C40.3013 9.5443 39.273 9.5443 38.6382 10.1791L36.3404 12.4769C35.7056 13.1117 35.7056 14.14 36.3404 14.7748C36.9751 15.4095 38.0035 15.4095 38.6382 14.7748ZM6.5 26.7422H9.75C10.6471 26.7422 11.375 26.0143 11.375 25.1172C11.375 24.2201 10.6471 23.4922 9.75 23.4922H6.5C5.6029 23.4922 4.875 24.2201 4.875 25.1172C4.875 26.0143 5.6029 26.7422 6.5 26.7422ZM40.625 25.1172C40.625 26.0143 41.3529 26.7422 42.25 26.7422H45.5C46.3971 26.7422 47.125 26.0143 47.125 25.1172C47.125 24.2201 46.3971 23.4922 45.5 23.4922H42.25C41.3529 23.4922 40.625 24.2201 40.625 25.1172ZM13.3596 14.7748C13.9945 15.4095 15.0228 15.4095 15.6575 14.7748C16.2924 14.14 16.2924 13.1117 15.6575 12.4769L13.3596 10.1791C12.7249 9.5443 11.6966 9.5443 11.0618 10.1791C10.427 10.8138 10.427 11.8422 11.0618 12.4769L13.3596 14.7748ZM14.79 26.7422H18.04C17.9322 26.2174 17.875 25.6736 17.875 25.1172C17.875 20.6293 21.5122 16.9922 26 16.9922C30.4878 16.9922 34.125 20.6293 34.125 25.1172C34.125 25.6736 34.0679 26.2174 33.96 26.7422H37.21C37.2904 26.2069 37.375 25.6736 37.375 25.1172C37.375 18.8457 32.2715 13.7422 26 13.7422C19.7285 13.7422 14.625 18.8457 14.625 25.1172C14.625 25.6736 14.7139 26.2069 14.79 26.7422ZM45.5 29.9922H6.5C5.6029 29.9922 4.875 30.7201 4.875 31.6172C4.875 32.5143 5.6029 33.2422 6.5 33.2422H45.5C46.3971 33.2422 47.125 32.5143 47.125 31.6172C47.125 30.7201 46.3971 29.9922 45.5 29.9922ZM45.5 36.4922H6.5C5.6029 36.4922 4.875 37.2201 4.875 38.1172C4.875 39.0143 5.6029 39.7422 6.5 39.7422H45.5C46.3971 39.7422 47.125 39.0143 47.125 38.1172C47.125 37.2201 46.3971 36.4922 45.5 36.4922ZM45.5 42.9922H6.5C5.6029 42.9922 4.875 43.7201 4.875 44.6172C4.875 45.5143 5.6029 46.2422 6.5 46.2422H45.5C46.3971 46.2422 47.125 45.5143 47.125 44.6172C47.125 43.7201 46.3971 42.9922 45.5 42.9922Z" fill="white"/>
</svg>
