<svg width="52" height="53" viewBox="0 0 52 53" fill="none" xmlns="http://www.w3.org/2000/svg">
<path d="M6.5 33.2423H45.5C46.3971 33.2423 47.125 32.5144 47.125 31.6173C47.125 30.7202 46.3971 29.9923 45.5 29.9923H6.5C5.6029 29.9923 4.875 30.7202 4.875 31.6173C4.875 32.5144 5.6029 33.2423 6.5 33.2423ZM45.5 36.4923H6.5C5.6029 36.4923 4.875 37.2202 4.875 38.1173C4.875 39.0144 5.6029 39.7423 6.5 39.7423H45.5C46.3971 39.7423 47.125 39.0144 47.125 38.1173C47.125 37.2202 46.3971 36.4923 45.5 36.4923ZM45.5 42.9923H6.5C5.6029 42.9923 4.875 43.7202 4.875 44.6173C4.875 45.5144 5.6029 46.2423 6.5 46.2423H45.5C46.3971 46.2423 47.125 45.5144 47.125 44.6173C47.125 43.7202 46.3971 42.9923 45.5 42.9923ZM20.8246 26.7422C20.7908 26.7083 20.7483 26.6871 20.7146 26.6533C16.9123 22.851 16.9123 16.6662 20.7146 12.8619C20.9748 12.6037 21.2498 12.3584 21.5419 12.1299C21.3133 15.7818 22.6316 19.3789 25.3103 22.0555C27.9889 24.7363 31.5858 26.0502 35.2379 25.8217C34.9671 26.1666 34.6413 26.4438 34.3344 26.7421H38.5514C39.0635 25.9253 39.4908 25.0409 39.8294 24.095C40.0346 23.5005 39.8844 22.8425 39.4401 22.4023C39.0043 21.9601 38.344 21.8077 37.7517 22.0173C34.1588 23.2867 30.272 22.4214 27.6081 19.7575C24.942 17.0915 24.0746 13.2046 25.3483 9.61181C25.5598 9.02153 25.4075 8.36554 24.9633 7.9212C24.5231 7.479 23.8651 7.32879 23.2748 7.53821C21.3937 8.20263 19.7582 9.22456 18.4167 10.564C14.0283 14.9525 13.4549 21.7127 16.6625 26.7422H20.8246Z" fill="white"/>
</svg>
